<?xml version="1.0" encoding="UTF-8"?>
<svg xmlns="http://www.w3.org/2000/svg" viewBox="0 0 200 200">
  <!-- Background -->
  <defs>
    <linearGradient id="bgGradient" x1="0%" y1="0%" x2="100%" y2="100%">
      <stop offset="0%" stop-color="#4f46e5" />
      <stop offset="100%" stop-color="#7c3aed" />
    </linearGradient>
    <filter id="shadow" x="-10%" y="-10%" width="120%" height="120%">
      <feDropShadow dx="2" dy="2" stdDeviation="3" flood-opacity="0.3" />
    </filter>
  </defs>
  
  <!-- Background Circle -->
  <circle cx="100" cy="100" r="90" fill="url(#bgGradient)" filter="url(#shadow)" />
  
  <!-- Boxes -->
  <g transform="translate(50, 55)">
    <!-- Stack of Boxes -->
    <rect x="0" y="15" width="40" height="40" rx="4" fill="#ffffff" opacity="0.9" />
    <rect x="10" y="5" width="40" height="40" rx="4" fill="#ffffff" opacity="0.7" />
    <rect x="20" y="-5" width="40" height="40" rx="4" fill="#ffffff" opacity="0.5" />
    
    <!-- Check Mark for Inventory -->
    <path d="M75 40 L85 50 L105 30" stroke="#ffffff" stroke-width="6" stroke-linecap="round" stroke-linejoin="round" fill="none" />
    
    <!-- Bar Graph Lines -->
    <rect x="20" y="65" width="10" height="25" rx="2" fill="#ffffff" opacity="0.8" />
    <rect x="40" y="55" width="10" height="35" rx="2" fill="#ffffff" opacity="0.8" />
    <rect x="60" y="50" width="10" height="40" rx="2" fill="#ffffff" opacity="0.8" />
    <rect x="80" y="60" width="10" height="30" rx="2" fill="#ffffff" opacity="0.8" />
  </g>
  
  <!-- Search/Focus Circle -->
  <circle cx="145" cy="60" r="15" fill="none" stroke="#ffffff" stroke-width="5" opacity="0.8" />
  <line x1="155" y1="70" x2="165" y2="80" stroke="#ffffff" stroke-width="5" stroke-linecap="round" opacity="0.8" />
</svg>